PathFileType	4	(X/Y/Z)	RBDS018\RBDS018runT25.trc
DataRate	CameraRate	NumFrames	NumMarkers	Units	OrigDataRate	OrigDataStartFrame	OrigNumFrames
150.000000	150.000000	4	33	mm	150.000000	1687	4500
Frame#	Time	L.ASIS			L.Heel.Bottom			L.Heel.Lateral			L.Heel.Top			L.Iliac.Crest			L.MT1			L.MT5			L.PSIS			L.Shank.Bottom.Lateral			L.Shank.Bottom.Medial			L.Shank.Top.Lateral			L.Shank.Top.Medial			L.Thigh.Bottom.Lateral			L.Thigh.Bottom.Medial			L.Thigh.Top.Lateral			L.Thigh.Top.Medial			R.ASIS			R.ASY			R.Heel.Bottom			R.Heel.Lateral			R.Heel.Top			R.Iliac.Crest			R.MT1			R.MT5			R.PSIS			R.Shank.Bottom.Lateral			R.Shank.Bottom.Medial			R.Shank.Top.Lateral			R.Shank.Top.Medial			R.Thigh.Bottom.Lateral			R.Thigh.Bottom.Medial			R.Thigh.Top.Lateral			R.Thigh.Top.Medial			
		X1	Y1	Z1	X2	Y2	Z2	X3	Y3	Z3	X4	Y4	Z4	X5	Y5	Z5	X6	Y6	Z6	X7	Y7	Z7	X8	Y8	Z8	X9	Y9	Z9	X10	Y10	Z10	X11	Y11	Z11	X12	Y12	Z12	X13	Y13	Z13	X14	Y14	Z14	X15	Y15	Z15	X16	Y16	Z16	X17	Y17	Z17	X18	Y18	Z18	X19	Y19	Z19	X20	Y20	Z20	X21	Y21	Z21	X22	Y22	Z22	X23	Y23	Z23	X24	Y24	Z24	X25	Y25	Z25	X26	Y26	Z26	X27	Y27	Z27	X28	Y28	Z28	X29	Y29	Z29	X30	Y30	Z30	X31	Y31	Z31	X32	Y32	Z32	X33	Y33	Z33	

1688	11.24666666666667	2163.190761441367	1044.847263192431	915.1286572440666	1996.670852172513	183.4154997768885	949.3830417434697	2025.801973374325	178.464949649127	900.7645219505818	2030.363004142612	220.9560766437472	946.1932740768248	2102.282129090054	1122.92280619819	859.1587557618353	2195.517296844903	77.92367079883078	975.8815084490592	2165.931005424931	95.07111851050087	866.9024475041011	1983.735520245194	1075.597678421701	950.6019073392064	2116.956713022974	298.7733500899287	882.8768255274947	2091.16158395788	313.0792250478084	925.1545124391727	2144.162797168624	374.0130426781463	869.9945267229546	2120.647050015864	392.0223026171831	914.30400882398	2269.689151063619	686.1102272027208	844.3595353061165	2211.963006526958	655.8138497922414	877.2250739682843	2212.276584301597	777.601985315627	827.0127580375412	2155.789825975973	747.6167803447699	855.3021840534437	2142.899221684369	1040.414150648255	1140.06482669982	1856.285497099155	90.44350823295144	1024.548711167325	1658.561448680172	109.7010770825691	997.4974235433805	1680.265776832919	113.6734522089166	1037.602234052126	1686.858228370422	151.2742841353077	1003.295152402948	2092.471575700877	1121.327027078554	1161.897663082687	1869.816922367658	45.84512877909875	972.3986570606747	1834.555925510832	46.94564196026791	1079.093134355297	1976.463571077086	1081.810043831707	1061.164252972644	1788.854507802272	237.305067601815	1087.825358274393	1752.337293509242	262.631841855332	1054.134262893405	1814.769766873927	310.3768124938509	1112.993441297289	1779.383751299849	334.0612526297976	1079.019273949893	1978.859176685273	641.1745924464255	1161.292042554031	1920.794265891795	660.9846242771247	1122.596048904993	1995.870167062193	747.7338266379016	1186.200947387478	1940.928460568735	765.4244445090509	1150.568795246251	
1689	11.25333333333333	2163.765182125976	1050.970813290803	914.4285095177279	2017.303216423345	168.6729947934372	950.0678094662026	2046.9026177023	164.9909261757515	901.6639061937061	2048.655094519364	208.1129620171419	946.6709647022698	2102.241680757303	1130.101066697904	859.2378467274374	2221.899667576588	75.74067140430932	978.5533809697654	2191.961956995048	90.15277660616974	869.2763788297799	1984.807441421505	1081.641952081844	950.9732070208273	2130.690686590684	291.1214551519381	883.5317510945247	2104.260058888601	303.9304666268603	925.767642439842	2153.690321956814	367.7059151692671	870.2910809945064	2129.212770632252	384.3923686097348	914.5906383969307	2267.597304103585	690.0040230810919	845.0718300095818	2209.267510672785	660.1058773622428	877.1197172336587	2211.19051128608	782.1116587870766	827.5153138445246	2154.197274234032	752.6073641028999	855.2441965860268	2145.318626027168	1044.279498425885	1139.168834197878	1844.193180978235	91.73682641734554	1025.107912595018	1647.704519905538	120.6215809697371	997.3433500572105	1669.489996840199	123.3274993155887	1037.519507039571	1677.872030028924	160.7571461144616	1003.437504424095	2095.658032829244	1125.672420996772	1161.569026451425	1855.343086472002	46.47118978159116	972.6416322389354	1820.198226220598	48.60150679747289	1079.289691738236	1978.53429837068	1087.044420071598	1061.877395716517	1777.992734456435	244.5407150201908	1087.832145046981	1742.086497643654	269.4960029015811	1053.332720296076	1803.503246981365	317.8707445504577	1112.652592461815	1768.584669161147	341.1835445935447	1078.100926019581	1971.978931105377	648.04567728034	1161.280069079936	1914.451146735657	669.6570412954987	1122.74897748168	1992.200674768967	754.0757284095528	1186.549674270517	1937.693339650968	773.3836576044755	1151.043549675145	
1690	11.26	2164.288810641106	1056.817789355015	913.5286094043224	2038.284371349912	154.6945642989994	950.5727386064643	2068.387259008185	152.2379508017492	902.4351251730051	2067.204244674774	195.8828549056038	946.9289144923215	2102.016089763624	1136.938901981941	859.2189647180135	2247.701721424995	74.67328581695816	981.6298422367128	2217.907092537038	86.13698224134696	871.9779488664491	1985.940621772285	1087.507185708502	951.3544729815108	2144.583517299487	283.7516571094416	884.0445097961664	2117.486547441608	295.1164455846072	926.1312972740116	2163.380098911855	361.4233103739009	870.3501461644347	2137.889022418716	376.8082284680489	914.5316766394792	2265.018548788938	693.248588936218	845.6895836093593	2206.020977945704	663.8154381019376	876.8423179953862	2209.79235857945	786.087861913956	828.0231581323053	2152.242625749737	757.1323452442438	855.1327749706314	2147.836814957146	1048.113118999752	1138.145515663573	1832.436403222493	93.33730491865039	1025.696759836972	1637.667462253633	132.0518969193312	997.0939485764306	1659.445135723812	133.4713969604693	1037.356403631369	1669.70559578156	170.643186854391	1003.52314992857	2098.712308901897	1129.919299027246	1161.198547597181	1841.27200373333	47.50266870503157	972.9368364662701	1806.084392475202	50.6984475330439	1079.512572359244	1980.618635560406	1092.074760781068	1062.540250859806	1767.854063600217	251.8932032500259	1087.882240964606	1732.639685056531	276.4872091522585	1052.535127454337	1793.008975794113	325.475689755229	1112.363594949094	1758.609644234006	348.4263742538173	1077.175805574622	1965.754648688198	654.8752167055017	1161.459355801193	1908.827569217626	678.0936119213096	1122.988131398112	1988.929267817936	760.3580646194682	1187.036647440719	1934.903890614012	781.1189064957396	1151.549989439866	
1691	11.26666666666667	2164.743364226937	1062.281286960652	912.4889308133119	2059.395196964695	141.6259874760794	950.9664440375957	2090.028055653915	140.3408254067569	903.1258464466649	2085.827905343303	184.3963648627279	947.0069207326037	2101.650224235854	1143.333057694542	859.1178584021141	2272.692925371103	74.69884266667518	985.0586196294113	2243.502439248569	83.02511295347934	874.9848253849427	1987.10701440949	1093.141419499876	951.7670478938754	2158.512818074096	276.757520252825	884.4200573838907	2130.705518917546	286.7372128554558	926.2483481675279	2173.142495826085	355.2612851180934	870.1779734177293	2146.586463879481	369.3688935292121	914.1302392138189	2261.996639422127	695.8202502467184	846.1509366127451	2202.307761153054	666.9336193189012	876.4208115207666	2208.096967174144	789.4774227495205	828.4708061191823	2149.975212999178	761.1471950980855	854.974647995388	2150.404408744186	1051.867307764524	1137.042667939812	1820.94888059948	95.30167082280985	1026.304994082779	1628.399899229149	143.8778279558634	996.7419185675097	1650.073758320038	144.0141453973931	1037.105533147472	1662.272638588809	180.8356275967278	1003.547629939178	2101.626396720193	1134.036527902945	1160.803704193121	1827.586036707963	49.00129871772784	973.2871525884927	1792.18551970429	53.28825201988356	1079.738617613855	1982.686477933128	1096.883617016141	1063.175470648179	1758.422709485783	259.292202442162	1087.959813200087	1723.959988772079	283.5648058957553	1051.757470921609	1783.313699928369	333.103806140366	1112.120900612406	1749.47540139559	355.7300015009694	1076.263999682467	1960.219708773937	661.5621246732844	1161.768421377661	1903.949650843329	686.1734114858475	1123.230408840619	1986.046119536772	766.4989258420643	1187.591442691907	1932.550936219972	788.5380096626033	1151.996153557702	
